# xmcd
#
# Track frame offsets: 
#        150
#        12252
#        26635
#        44560
#        59687
#        80057
#        90132
#        107060
#        118395
#        128192
#        148647
#        162272
#        178757
#        197617
#
# Disc length: 2796 seconds
#
# Revision: 0
# Processed by: cddbd v1.5PL3 Copyright (c) Steve Scherf et al.
# Submitted via: ExactAudioCopy v0.95a5
#
DISCID=c40aea0e
DTITLE=The Gillis Brothers - Heart and Soul
DYEAR=1995
DGENRE=Bluegrass
TTITLE0=Heart and Soul
TTITLE1=Are You Alone
TTITLE2=I'll Just Go Away
TTITLE3=No More To Be Lonesome
TTITLE4=Salvation's Final Plan
TTITLE5=Georgia Five String
TTITLE6=Say , Won't You Be Mine
TTITLE7=I'll Just Take This Train And Ride
TTITLE8=Close By
TTITLE9=Dreaming Of A Little Cabin
TTITLE10=Steel Guitar Rag
TTITLE11=I'll Take A Ride
TTITLE12=Family Picture
TTITLE13=Say you'll Take Me Back
EXTD=
EXTT0=
EXTT1=
EXTT2=
EXTT3=
EXTT4=
EXTT5=
EXTT6=
EXTT7=
EXTT8=
EXTT9=
EXTT10=
EXTT11=
EXTT12=
EXTT13=
PLAYORDER=
